<svg xmlns="http://www.w3.org/2000/svg" width="256" height="256" viewBox="0 0 256 256"><path fill="#C31618" d="M0 0h256v256H0z"/><path fill="#FFF" d="M206.938 19.39H49.062C20 19.39 20 73.195 20 92.42c0 19.227.177 76.173 29.062 76.173h157.876c28.885 0 29.062-56.946 29.062-76.172 0-19.225 0-73.03-29.062-73.03zm-102.11 114.65V50.8l65.193 41.62-65.19 41.62zM85.73 180.15h7.952v46.762h10.53v7.364H85.73V180.15zm23.193 0h7.953v54.126h-7.953V180.15zm29.75 0h7.73l-8.247 54.126h-7.953l-8.248-54.125h7.732l3.977 29.752.295 2.282h.44l.295-2.282 3.977-29.75zm12.81 0h18.188v8.175h-10.235v14.213h7.364v8.69h-7.365V226.1h10.236v8.174h-18.188V180.15z"/></svg>